# xmcd
#
# Track frame offsets:
#	150
#	11210
#	22301
#	30906
#	41229
#	54992
#	66221
#	75375
#	87925
#	100575
#	114428
#	125261
#	137439
#	150557
#	164515
#	172907
#	183987
#	195765
#	207350
#	219472
#	230844
#	243460
#	253688
#	264681
#	275252
#	286296
#	296583
#
# Disc length: 4112 seconds
#
# Revision: 1
# Processed by: cddbd v1.5.2PL0 Copyright (c) Steve Scherf et al.
# Submitted via: audiograbber 1.83.01
#
DISCID=78100e1b
DTITLE=Various Artist - Northern Soul Of Tangerine Records
DYEAR=2011
DGENRE=Soul
TTITLE0=The Vala-Quons and Mike Akopoff - Window Shopping On Girl's Avenue
TTITLE1=George Wydell - Funny Feeling
TTITLE2=Douglas Gibson and The Sweet and Sours - Run For Your Life
TTITLE3=Brandi Alexander - Do Right Man
TTITLE4=The Visitors - What About Me
TTITLE5=George Byrd - I'm Available
TTITLE6=Ike and Tina Turner - Dust My Broom
TTITLE7=George Wydell - I'm Gonna Cut You Loose
TTITLE8=The Ohio Players - A Thing Called Love
TTITLE9=Alex Brown - What Would You Do Without Someone To Love
TTITLE10=Jimmy Lewis - Two Women
TTITLE11=Andy Butler - Coming Apart At The Seams
TTITLE12=Emile Griffith - Goin' Goin' Gone
TTITLE13=Gene Diamond - Miss Tall And Slender
TTITLE14=Louis Jordan - Workin' Man
TTITLE15=Barbara Middleton - Come On Back To Me
TTITLE16=Lula Reed - Take Your Time
TTITLE17=Ike and Tina Turner - Beauty Is Just Skin Deep
TTITLE18=Jimmy Lewis - I Quit, You Win
TTITLE19=George Byrd - You Better Tell Her So
TTITLE20=Robbie Mitchell and Darryl Patterson - No One Can Do The Things You Do
TTITLE21=Dee Andrews - Stop! You're Hurting My Heart
TTITLE22=Brandi Alexander - Life Has No Meaning
TTITLE23=The Ohio Players - Neighbors
TTITLE24=Sterling Magee - I Still Believe In You
TTITLE25=George Wydell - From Out Of Nowhere
TTITLE26=Barbara Middleton - I Wonder Why
EXTD=
EXTT0=
EXTT1=
EXTT2=
EXTT3=
EXTT4=
EXTT5=
EXTT6=
EXTT7=
EXTT8=
EXTT9=
EXTT10=
EXTT11=
EXTT12=
EXTT13=
EXTT14=
EXTT15=
EXTT16=
EXTT17=
EXTT18=
EXTT19=
EXTT20=
EXTT21=
EXTT22=
EXTT23=
EXTT24=
EXTT25=
EXTT26=
PLAYORDER=
